# xmcd CD database file
#
# Track frame offsets:
#	150
#	17145
#	30285
#	48470
#	64710
#	82380
#	96445
#	109260
#	125570
#	137702
#	157655
#	179092
#	193865
#
# Disc length: 2756 seconds
#
# Revision: 0
# Processed by: cddbd v1.5.1PL2 Copyright (c) Steve Scherf et al.
# Submitted via: CD2WAV32(JP) R3.22
#
DISCID=b70ac20d
DTITLE=THE DIRTY STRANGERS - Burn The Bubble
DYEAR=1994
DGENRE=Rock
TTITLE0=The Biggest Mouth
TTITLE1=Party 42
TTITLE2=Saturday Night
TTITLE3=High Heels And Hangovers
TTITLE4=Only For You
TTITLE5=Special Girl
TTITLE6=You'll Have To Do Better
TTITLE7=Got To Know Her
TTITLE8=Last Look At Love
TTITLE9=So and So
TTITLE10=The Gambler's Song
TTITLE11=Who Blew The Whistle
TTITLE12=Naturally Nasty
EXTD=
EXTT0=
EXTT1=
EXTT2=
EXTT3=
EXTT4=
EXTT5=
EXTT6=
EXTT7=
EXTT8=
EXTT9=
EXTT10=
EXTT11=
EXTT12=
PLAYORDER=
